<svg id="图层_1" data-name="图层 1" xmlns="http://www.w3.org/2000/svg" viewBox="0 0 118 118"><path d="M56.59,103.32a2.2,2.2,0,0,0-3,1.37l-3.08,7.51a2.16,2.16,0,0,0,1.71,3.07,2.35,2.35,0,0,0,2.51-1.48c1.15-2.42,2.18-4.88,3.09-7.4a2.36,2.36,0,0,0-1.26-3.07Z" fill="#3790fa"/><path d="M108.4,75.22a2.26,2.26,0,0,0-2.51-2.16,2.21,2.21,0,0,0-2.06,2.39c.12,3.76-.11,7.4-.22,11.15,0,1.71.79,2.62,2.16,2.73a2.34,2.34,0,0,0,2.4-2.62c0-2.5.34-5.12.23-7.51a23.94,23.94,0,0,0,0-4Z" fill="#3790fa"/><path d="M31.94,89.56a2.33,2.33,0,0,0-2.85,1.59c-.23.57-.34,1.25-.57,1.82a74.69,74.69,0,0,1-3.65,8.76c-.8,1.71.11,3.41,1.94,3.41A2.18,2.18,0,0,0,29,103.66,59.09,59.09,0,0,0,33.42,92.4a2.2,2.2,0,0,0-1.48-2.84Z" fill="#3790fa"/><path d="M69.71,84.32a2.3,2.3,0,0,0-2.51,2.05,118.93,118.93,0,0,1-3.53,16.73c-.92,3.18-2.06,6.37-3.2,9.55a2.19,2.19,0,0,0,.91,2.85,2.23,2.23,0,0,0,2.74-.23,4,4,0,0,0,.91-1.71,92.64,92.64,0,0,0,3.54-10.92,118.3,118.3,0,0,0,3.2-15.81,2.4,2.4,0,0,0-2.06-2.51Z" fill="#3790fa"/><path d="M8.66,44.51a2.42,2.42,0,0,0-1.59-3.19,2.4,2.4,0,0,0-2.86,1.82A58.32,58.32,0,0,0,2,59.3a47.94,47.94,0,0,0,.23,5.57A55.69,55.69,0,0,0,4.9,76.93a2,2,0,0,0,1.94,1.48C8.78,78.52,9.69,77,9.12,75a51.47,51.47,0,0,1-.46-30.49Z" fill="#bfbfbf"/><path d="M63.1,76.59a55.84,55.84,0,0,0-.35-7.29,84.76,84.76,0,0,0-1.59-10.69,2.27,2.27,0,0,0-2.63-1.82,2.22,2.22,0,0,0-1.71,2.85A85.42,85.42,0,0,1,58.53,73a78,78,0,0,1-2.17,23c-.34,1.47.23,2.73,1.49,3.07s2.51-.46,3-2A79.82,79.82,0,0,0,63.1,76.59Z" fill="#3790fa"/><path d="M87.06,49.63a2.27,2.27,0,0,0-2.85-1.48A2.17,2.17,0,0,0,82.72,51a107.55,107.55,0,0,1,3,21.05A113.29,113.29,0,0,1,82,106.51c-.34,1.48.22,2.84,1.48,3.07a2.28,2.28,0,0,0,3-1.93,116.11,116.11,0,0,0,3.88-30.27A117.2,117.2,0,0,0,88.89,57.7a44.48,44.48,0,0,0-1.83-8.07Z" fill="#3790fa"/><path d="M12,35.86a49.49,49.49,0,0,1,8.45-12.17A51.67,51.67,0,0,1,58,6.74c1.71,0,2.74-.91,2.74-2.39s-1-2.28-2.85-2.28A56.86,56.86,0,0,0,8,33.47a4.17,4.17,0,0,0-.46,1.59,2,2,0,0,0,1.14,2A2.29,2.29,0,0,0,12,35.86Z" fill="#bfbfbf"/><path d="M43.47,63.16c-.91-5.46-.23-10.35,3.54-14.67a2.36,2.36,0,0,0-.8-3.53,2.18,2.18,0,0,0-2.86.68,20,20,0,0,0-4.67,16.61A105.65,105.65,0,0,1,40,76.59a62.32,62.32,0,0,1-1.36,14A64.44,64.44,0,0,1,33,106.17a3,3,0,0,0-.57,1.93A2.2,2.2,0,0,0,34.11,110a2.4,2.4,0,0,0,2.74-1.37,65.5,65.5,0,0,0,7.07-21.73,79,79,0,0,0-.45-23.78Z" fill="#3790fa"/><path d="M16.88,69.54c-.8-5.12-1.48-10.13-.8-15.36A43.22,43.22,0,0,1,34.22,23.57a2.4,2.4,0,0,0,1.15-2.84c-.58-1.59-2.17-1.93-3.77-.91A44.42,44.42,0,0,0,22,28.69a47.09,47.09,0,0,0-10.72,29c-.23,5.58,1.25,11,1.59,16.5.23,3.64.35,7.28-.79,10.92-.34,1.14-.69,2.39-1,3.3a2.27,2.27,0,0,0,2.28,2.5c1.37,0,1.94-.79,2.4-1.93,2.39-6.26,2-12.86,1.14-19.45Z" fill="#3790fa"/><path d="M115.13,49.51q-6.84-34.12-40-45a32.91,32.91,0,0,0-7.53-1.59,2,2,0,0,0-2.4,1.82A2.1,2.1,0,0,0,67,7.31c.45.11.91.11,1.25.23A51.58,51.58,0,0,1,97.67,23.92a50.42,50.42,0,0,1,10.16,16.49,54,54,0,0,1,3.42,17,2.27,2.27,0,0,0,3,2.28c1.14-.34,1.71-1.25,1.6-3.07a30.23,30.23,0,0,0-.69-7.06Z" fill="#3790fa"/><path d="M85,30.4a33.52,33.52,0,0,0-7.42-5.23,2.18,2.18,0,0,0-3.08.79,2.23,2.23,0,0,0,.91,3.19,3,3,0,0,0,.8.46c7.64,4.66,13,11.14,15.52,19.79,2.28,8.31,2.85,16.84,3.08,25.37a121.83,121.83,0,0,1-1.71,24.12c-.23,1.7.45,2.73,1.82,3s2.51-.56,2.74-2.27A118.15,118.15,0,0,0,99.38,79.2,158.18,158.18,0,0,0,97.44,54,39.12,39.12,0,0,0,85,30.4Z" fill="#3790fa"/><path d="M66.06,39.73a20.52,20.52,0,0,0-13.81-.11c-1.94.57-2.51,2.61-1.25,3.86a2.45,2.45,0,0,0,2.85.46A15.86,15.86,0,0,1,74.62,56.22a118.87,118.87,0,0,1,1.71,12.63,100.83,100.83,0,0,1-.11,18.55,109.51,109.51,0,0,1-5.14,23.32c-.11.45-.34.79-.22,1.25a2.18,2.18,0,0,0,2,1.93,2.24,2.24,0,0,0,2.51-1.7A105,105,0,0,0,81.35,78a121.3,121.3,0,0,0-1.94-21.61c-1.48-8.08-5.82-13.77-13.35-16.61Z" fill="#3790fa"/><path d="M34.45,53.61c2.63-12.86,16.21-21.84,29.22-19.23A25.75,25.75,0,0,1,78.39,43a6.44,6.44,0,0,0,1.25,1.25,2.33,2.33,0,0,0,2.74-.68c.8-1,.68-2.05-.23-3.3A28.49,28.49,0,0,0,61.84,29.49c-10.61-.91-19.4,2.85-26.13,11.15a28.13,28.13,0,0,0-6.05,22.3,78.56,78.56,0,0,1,1.26,11.49c0,2.73,0,5.46-.23,8.07a2.29,2.29,0,0,0,4.56.46,73.21,73.21,0,0,0-.11-15c-.35-3.07-1.37-6-1.14-8.87a28.75,28.75,0,0,1,.45-5.46Z" fill="#3790fa"/><path d="M105.77,68.51a2.32,2.32,0,0,0,2.17-2.5v-.8c-.45-4.32-.91-8.64-1.6-13a46.48,46.48,0,0,0-11.75-25C85.12,16.64,73.14,11.4,58.87,11.29A47.11,47.11,0,0,0,40.39,15a2.37,2.37,0,0,0-1.49,3.07,2.3,2.3,0,0,0,3.2,1.14A43.74,43.74,0,0,1,63,16.07a42.15,42.15,0,0,1,25.56,11.6A43.66,43.66,0,0,1,101.89,54q.85,6.15,1.37,12.29a2.66,2.66,0,0,0,2.51,2.27Z" fill="#3790fa"/><path d="M52.48,61.12a8.37,8.37,0,0,1,0-4.1,6.65,6.65,0,0,1,7.08-4.78c3.08.12,5.59,2.39,6.27,5.81a109.12,109.12,0,0,1,1.94,19.33,2.29,2.29,0,0,0,2.29,2.51,2.32,2.32,0,0,0,2.28-2.39v-2h.11c-.23-3-.34-5.92-.68-8.87s-.8-5.92-1.26-8.88a11.64,11.64,0,0,0-12.89-10c-5.94.69-10.73,6.6-9.82,12.4.46,3.53,1,7.06,1.37,10.58a73.35,73.35,0,0,1-3.42,29,80.42,80.42,0,0,1-4.34,10.24,2.24,2.24,0,0,0,.12,2.5,2.06,2.06,0,0,0,2.17.91,2.61,2.61,0,0,0,2-1.7c7.87-16,9.7-32.88,6.73-50.51Z" fill="#3790fa"/><path d="M25.67,67.37a50.2,50.2,0,0,1-.8-11.71A34,34,0,0,1,57.5,25.05a32.66,32.66,0,0,1,9.36.91,2.79,2.79,0,0,0,1.37.12,2.1,2.1,0,0,0,1.83-2,2.22,2.22,0,0,0-1.72-2.39,33.5,33.5,0,0,0-9.58-1.14,26,26,0,0,0-7.08.68c-11.52,2.17-20.31,8.43-26.36,18.55a37,37,0,0,0-4.79,23.78c.34,3.18,1,6.25,1.26,9.44.45,7.85-.57,15.47-4.11,22.52A2.17,2.17,0,0,0,17.34,97a2.08,2.08,0,0,0,1.93,1.94,2.48,2.48,0,0,0,2.52-1.48c4.79-9.45,5.47-19.68,3.88-30Z" fill="#3790fa"/></svg>