<svg id="图层_1" data-name="图层 1" xmlns="http://www.w3.org/2000/svg" xmlns:xlink="http://www.w3.org/1999/xlink" viewBox="0 0 188 188"><defs><linearGradient id="未命名的渐变_65" x1="114.68" y1="20.32" x2="-6.1" y2="141.1" gradientTransform="translate(-5.89 4.47) rotate(-4.66)" gradientUnits="userSpaceOnUse"><stop offset="0" stop-color="#fc638b"/><stop offset="0.91" stop-color="#ff9ff1" stop-opacity="0"/></linearGradient><linearGradient id="未命名的渐变_46" x1="120.5" y1="22.81" x2="-0.28" y2="143.58" gradientTransform="translate(-5.89 4.47) rotate(-4.66)" gradientUnits="userSpaceOnUse"><stop offset="0" stop-color="#0066f9"/><stop offset="0.91" stop-color="#81b1f7" stop-opacity="0"/></linearGradient><linearGradient id="未命名的渐变_63" x1="218.39" y1="183.52" x2="96.89" y2="62.02" gradientTransform="translate(263.41 28.18) rotate(109.67)" gradientUnits="userSpaceOnUse"><stop offset="0" stop-color="#8b44fc"/><stop offset="0.86" stop-color="#f9e4a0" stop-opacity="0.04"/></linearGradient><linearGradient id="未命名的渐变_50" x1="223.03" y1="178.67" x2="101.53" y2="57.18" gradientTransform="translate(263.41 28.18) rotate(109.67)" gradientUnits="userSpaceOnUse"><stop offset="0" stop-color="#06f3ff"/><stop offset="0.86" stop-color="#94f7ff" stop-opacity="0.04"/></linearGradient><linearGradient id="未命名的渐变_58" x1="185.73" y1="139.55" x2="57.76" y2="29.48" gradientTransform="translate(3.01 -6.54) rotate(4.3)" gradientUnits="userSpaceOnUse"><stop offset="0" stop-color="#e7f967"/><stop offset="0.87" stop-color="#fafcb9" stop-opacity="0"/></linearGradient><linearGradient id="未命名的渐变_44" x1="192.71" y1="139.03" x2="64.74" y2="28.95" gradientTransform="translate(3.01 -6.54) rotate(4.3)" gradientUnits="userSpaceOnUse"><stop offset="0" stop-color="#06edc0"/><stop offset="0.87" stop-color="#6cffd8" stop-opacity="0"/></linearGradient></defs><path d="M62.65,111.18a49.85,49.85,0,0,1,36.27-52L94.27,2A106.69,106.69,0,0,0,23,165.57l46.85-32.39A49.58,49.58,0,0,1,62.65,111.18Z" opacity="0.4" fill="url(#未命名的渐变_65)"/><path d="M68.65,113.18a49.85,49.85,0,0,1,36.27-52L100.27,4A106.69,106.69,0,0,0,29,167.57l46.85-32.39A49.58,49.58,0,0,1,68.65,113.18Z" fill="url(#未命名的渐变_46)"/><path d="M124.1,91.05a48.11,48.11,0,0,1-76.5,20.44L5.39,147.32a103.17,103.17,0,0,0,170.5-37.76c.25-.69.49-1.39.72-2.09L124.8,88.94C124.58,89.64,124.35,90.35,124.1,91.05Z" opacity="0.4" fill="url(#未命名的渐变_63)"/><path d="M127.1,97.05a48.11,48.11,0,0,1-76.5,20.44L8.39,153.32a103.17,103.17,0,0,0,170.5-37.76c.25-.69.49-1.39.72-2.09L127.8,94.94C127.58,95.64,127.35,96.35,127.1,97.05Z" fill="url(#未命名的渐变_50)"/><path d="M68.48,70.26a48.19,48.19,0,0,1,40.06,68.45L154.35,170A103.34,103.34,0,0,0,72.61,15.33L70.4,15.2l-4.13,55C67,70.17,67.74,70.21,68.48,70.26Z" opacity="0.4" fill="url(#未命名的渐变_58)"/><path d="M75.48,70.26a48.19,48.19,0,0,1,40.06,68.45L161.35,170A103.34,103.34,0,0,0,79.61,15.33L77.4,15.2l-4.13,55C74,70.17,74.74,70.21,75.48,70.26Z" fill="url(#未命名的渐变_44)"/></svg>