<svg id="图层_1" data-name="图层 1" xmlns="http://www.w3.org/2000/svg" viewBox="0 0 24 24"><path d="M19.5,15.6v3.09" fill="none" stroke="#1a1a1a" stroke-linecap="round" stroke-miterlimit="10"/><path d="M8.66,2.28A7.75,7.75,0,0,1,12,1.54h0a7.28,7.28,0,0,1,7.5,7v4.94" fill="none" stroke="#1a1a1a" stroke-linecap="round" stroke-miterlimit="10"/><path d="M4.5,18.87V8.54a6.75,6.75,0,0,1,2.05-4.8" fill="none" stroke="#1a1a1a" stroke-linecap="round" stroke-miterlimit="10"/><path d="M6.5,20.69V9.07A5.42,5.42,0,0,1,10.9,3.8,5,5,0,0,1,12,3.69h0a5.51,5.51,0,0,1,1.36.16A5.44,5.44,0,0,1,17.5,9.07V20.69" fill="none" stroke="#1a1a1a" stroke-linecap="round" stroke-miterlimit="10"/><rect x="9" y="9" width="1" height="13" rx="0.5" fill="#1a1a1a"/><rect x="14" y="9" width="1" height="13" rx="0.5" fill="#1a1a1a"/><path d="M6.5,9.5s0,4,1.5,5.5a5.12,5.12,0,0,1,1.5,4.5" fill="none" stroke="#1a1a1a" stroke-linecap="round" stroke-miterlimit="10"/><path d="M12.5,9.5s.34,1.33-1.21,3.5C9.5,15.5,9.5,19.5,9.5,19.5" fill="none" stroke="#1a1a1a" stroke-linecap="round" stroke-miterlimit="10"/><path d="M14.53,9.5s-.34,3.33,1.21,5.5a10.51,10.51,0,0,1,1.79,5.5" fill="none" stroke="#1a1a1a" stroke-linecap="round" stroke-miterlimit="10"/><rect x="12" y="14" width="1" height="8" rx="0.5" fill="#1a1a1a"/><rect x="6.5" y="8.5" width="11" height="1" fill="#1a1a1a"/></svg>