<svg id="图层_1" data-name="图层 1" xmlns="http://www.w3.org/2000/svg" viewBox="0 0 24 24"><path d="M2.32,8.32V6.5a4,4,0,0,1,4-4H7.84" fill="none" stroke="#1a1a1a" stroke-linecap="round" stroke-miterlimit="10"/><path d="M7.7,21.5H6.32a4,4,0,0,1-4-4V16" fill="none" stroke="#1a1a1a" stroke-linecap="round" stroke-miterlimit="10"/><path d="M21.32,16V17.5a4,4,0,0,1-4,4H15.77" fill="none" stroke="#1a1a1a" stroke-linecap="round" stroke-miterlimit="10"/><path d="M15.88,2.5h1.44a4,4,0,0,1,4,4V8" fill="none" stroke="#1a1a1a" stroke-linecap="round" stroke-miterlimit="10"/><path d="M20.38,11.38a.83.83,0,0,1,0,1.24C19.07,13.85,15.81,16.5,12,16.5s-7.07-2.65-8.38-3.88a.83.83,0,0,1,0-1.24C4.93,10.15,8.19,7.5,12,7.5S19.07,10.15,20.38,11.38Z" fill="none" stroke="#1a1a1a" stroke-linecap="round" stroke-miterlimit="10" stroke-width="0.95"/><circle cx="12" cy="12" r="2.5" fill="#1a1a1a"/></svg>