<svg id="图层_1" data-name="图层 1" xmlns="http://www.w3.org/2000/svg" viewBox="0 0 24 24"><path d="M7.85,17a6.11,6.11,0,0,1-1-1A6.42,6.42,0,0,1,5.5,12a6.49,6.49,0,0,1,2-4.66,6.64,6.64,0,0,1,.64-.55" fill="none" stroke="#1a1a1a" stroke-linecap="round" stroke-linejoin="round"/><path d="M9.56,14.51A3.5,3.5,0,0,1,10.13,9" fill="none" stroke="#1a1a1a" stroke-linecap="round" stroke-linejoin="round"/><path d="M9.05,3A9.3,9.3,0,0,1,12,2.5,9.5,9.5,0,1,1,9,21" fill="none" stroke="#1a1a1a" stroke-linecap="round" stroke-linejoin="round"/><path d="M6.88,20a9.51,9.51,0,0,1,0-16" fill="none" stroke="#1a1a1a" stroke-linecap="round" stroke-linejoin="round"/><path d="M15.5,20.5c1-1,2.52-4,1-4-1,0-4,1-4.57-.17-.41-.84,1.45-1.37.3-2.26-.73-.57,0-1.72,1.27-1.57,0,0-1.7,0-1.61-.73a1.43,1.43,0,0,1,.56-.85.74.74,0,0,0,.06-1.05A7.22,7.22,0,0,1,11.84,9a.57.57,0,0,1,.26-.86c.94-.35,2.41-.49,2.75-1.35.27-.69.6-2.58,1.28-3.26" fill="none" stroke="#1a1a1a" stroke-linecap="round" stroke-linejoin="round"/></svg>